48 Hrs 1982 1080p Bluray x264-DON.mkv

INFO

RUNTIME...........: 1h:36m:36s
RELEASE SIZE......: 9,54GB
VIDEO CODEC.......: x264, 2pass, L4.1
VIDEO BITRATE.....: 13500 Kbps
RESOLUTION........: 1920 X 1080
FRAMERATE.........: 23.976 fps
AUDIO.............: English AC-3 @ 640Kbps
Subs..............: English, Port.
SOURCE............: 48.Hrs.1982.PT.1080p.Blu-ray.AVC.TrueHD.5.1-CtrlHD (Thx to davev205)

ENCODER...........: raphaex
RELEASE DATE......: 26/02/2011
720p RELEASE......: http://hdbits.org/details.php?id=92659

Storyline
Oddball cop and tough guy, Jack Cates is the only survivor of a cop shooting and in hunting down the murderer collects Reggie Hammond from jail for 48 hours. Hammond is oddly motivated to help. The killer is searching for his stash of cash. Cates and Hammond who have the Black-white, cop-crook thing to work out make surprisingly good partners as they navigate through the city looking for their suspect. Written by John Vogel <jlvogel@comcast.net> 
 
http://www.imdb.com/title/tt0083511/  

Genres:Action, Comedy, Crime, Drama, Thriller

Cast
Cast overview, first billed only: 
  Nick Nolte  ...  Jack Cates  
  Eddie Murphy  ...  Reggie Hammond  
  Annette O'Toole  ...  Elaine  
  Frank McRae  ...  Haden  
  James Remar  ...  Albert Ganz  
  David Patrick Kelly  ...  Luther  
  Sonny Landham  ...  Billy Bear  
  Brion James  ...  Ben Kehoe  
  Kerry Sherman  ...  Rosalie, Hostage Girl  
  Jonathan Banks  ...  Algren  
  James Keane  ...  Vanzant  
  Tara King  ...  Frizzy, Hotel Desk Clerk  
  Greta Blackburn  ...  Lisa, Blonde Hooker  
  Margot Rose  ...  Casey  
  Denise Crosby  ...  Sally  


[img]http://torrent-stats.info/9277/b1939917.png[/img]


Format : Matroska 
File size : 9.54 GiB 
Duration : 1h 36mn 
Overall bit rate : 14.1 Mbps 
Encoded date : UTC 2011-02-26 00:54:26 
Writing application : mkvmerge v4.5.0 ('Speed of Light') built on Feb 1 2011 02:10:32 
Writing library : libebml v1.2.0 + libmatroska v1.1.0 

Video 
ID : 1 
Format : AVC 
Format/Info : Advanced Video Codec 
Format profile : High@L4.1 
Format settings, CABAC : Yes 
Format settings, ReFrames : 4 frames 
Format settings, GOP : M=7, N=16 
Muxing mode : Container profile=Unknown@4.1 
Codec ID : V_MPEG4/ISO/AVC 
Duration : 1h 36mn 
Bit rate : 13.5 Mbps 
Width : 1 920 pixels 
Height : 1 080 pixels 
Display aspect ratio : 16:9 
Frame rate : 23.976 fps 
Color space : YUV 
Chroma subsampling : 4:2:0 
Bit depth : 8 bits 
Scan type : Progressive 
Bits/(Pixel*Frame) : 0.272 
Stream size : 8.92 GiB (93%) 
Writing library : x264 core 114 r1913 5fd3dce 
Encoding settings : cabac=1 / ref=4 / deblock=1:-3:-3 / analyse=0x3:0x113 / me=umh / subme=9 / psy=1 / psy_rd=1.00:0.00 / mixed_ref=1 / me_range=32 / chroma_me=1 / trellis=1 / 8x8dct=1 / cqm=0 / deadzone=21,11 / fast_pskip=0 / chroma_qp_offset=-2 / threads=6 / sliced_threads=0 / nr=0 / decimate=0 / interlaced=0 / constrained_intra=0 / bframes=6 / b_pyramid=2 / b_adapt=1 / b_bias=0 / direct=1 / weightb=1 / open_gop=0 / weightp=2 / keyint=250 / keyint_min=23 / scenecut=40 / intra_refresh=0 / rc_lookahead=40 / rc=2pass / mbtree=1 / bitrate=13500 / ratetol=1.0 / qcomp=0.60 / qpmin=0 / qpmax=69 / qpstep=4 / cplxblur=20.0 / qblur=0.5 / ip_ratio=1.40 / aq=1:0.80 
Language : English 

Audio 
ID : 2 
Format : AC-3 
Format/Info : Audio Coding 3 
Mode extension : CM (complete main) 
Codec ID : A_AC3 
Duration : 1h 36mn 
Bit rate mode : Constant 
Bit rate : 640 Kbps 
Channel(s) : 6 channels 
Channel positions : Front: L C R, Side: L R, LFE 
Sampling rate : 48.0 KHz 
Bit depth : 16 bits 
Stream size : 442 MiB (5%) 
Language : English 

Text #1 
ID : 3 
Format : UTF-8 
Codec ID : S_TEXT/UTF8 
Codec ID/Info : UTF-8 Plain Text 
Language : English 

Text #2 
ID : 4 
Format : UTF-8 
Codec ID : S_TEXT/UTF8 
Codec ID/Info : UTF-8 Plain Text 
Language : Portuguese 
 
http://www.imagebam.com/image/eefbde121631885 
http://www.imagebam.com/image/9557c2121631905 
http://www.imagebam.com/image/73f574121631915 
http://www.imagebam.com/image/eaab1a121631933 
http://www.imagebam.com/image/eb4fd7121631954 
http://www.imagebam.com/image/beae43121631985


